<svg width="1402" height="418" viewBox="0 0 1402 418" fill="none" xmlns="http://www.w3.org/2000/svg">
<path d="M391.556 117.284H379.532C371.961 117.284 365.838 119.622 361.162 124.298C356.486 128.974 354.148 134.986 354.148 142.334V149.682H391.556V188.092H354.148V309.334H319.078V188.092H288.684V149.682H319.078V144.004C319.078 134.429 320.414 125.857 323.086 118.286C325.758 110.493 329.655 103.924 334.776 98.58C340.12 93.236 346.466 89.1167 353.814 86.222C361.385 83.1046 369.957 81.546 379.532 81.546H391.556V117.284ZM458.426 173.73C461.544 168.609 465.663 164.155 470.784 160.37C476.128 156.362 481.918 153.022 488.152 150.35C494.61 147.678 501.401 145.674 508.526 144.338C515.652 143.002 522.777 142.334 529.902 142.334H534.244V183.75H529.902C521.886 183.75 513.648 185.42 505.186 188.76C496.725 191.877 488.932 196.108 481.806 201.452C474.904 206.573 469.226 212.363 464.772 218.82C460.542 225.277 458.426 231.735 458.426 238.192V309H417.01V137.658H458.426V173.73ZM598.633 309H559.221V138.994H598.633V309ZM598.633 120.624H559.221V81.546H598.633V120.624ZM764.316 138.994V309.334C764.316 318.463 762.98 326.479 760.308 333.382C757.636 340.507 753.962 346.519 749.286 351.418C744.61 356.539 738.932 360.325 732.252 362.774C725.572 365.446 718.224 366.782 710.208 366.782H633.722V329.708H703.862C710.764 329.708 716.442 327.593 720.896 323.362C725.572 319.131 727.91 313.231 727.91 305.66V303.656H678.144C670.796 303.656 663.782 302.431 657.102 299.982C650.644 297.31 644.966 293.413 640.068 288.292C635.169 283.171 631.272 276.936 628.378 269.588C625.483 262.017 624.036 253.333 624.036 243.536V199.114C624.036 189.317 625.483 180.744 628.378 173.396C631.272 165.825 635.169 159.479 640.068 154.358C644.966 149.237 650.644 145.451 657.102 143.002C663.782 140.33 670.796 138.994 678.144 138.994H764.316ZM727.576 176.068H686.494C683.154 176.068 680.036 176.847 677.142 178.406C674.247 179.742 671.686 181.746 669.46 184.418C667.233 186.867 665.452 189.651 664.116 192.768C662.78 195.885 662.112 199.337 662.112 203.122V239.194C662.112 242.979 662.78 246.542 664.116 249.882C665.452 253.222 667.233 256.117 669.46 258.566C671.686 261.015 674.247 263.019 677.142 264.578C680.036 265.914 683.154 266.582 686.494 266.582H727.576V176.068ZM861.619 138.994C871.417 138.994 880.101 140.553 887.671 143.67C895.465 146.565 902.033 150.684 907.377 156.028C912.944 161.372 917.175 167.829 920.069 175.4C922.964 182.971 924.411 191.543 924.411 201.118V246.876C924.411 256.228 922.964 264.801 920.069 272.594C917.175 280.165 912.944 286.733 907.377 292.3C902.033 297.644 895.465 301.763 887.671 304.658C880.101 307.553 871.417 309 861.619 309H847.925C838.351 309 829.667 307.553 821.873 304.658C814.08 301.763 807.4 297.644 801.833 292.3C796.489 286.733 792.37 280.165 789.475 272.594C786.803 264.801 785.467 256.228 785.467 246.876V201.118C785.467 191.543 786.803 182.971 789.475 175.4C792.37 167.829 796.489 161.372 801.833 156.028C807.4 150.684 814.08 146.565 821.873 143.67C829.667 140.553 838.351 138.994 847.925 138.994H861.619ZM847.925 177.404C841.023 177.404 835.122 179.742 830.223 184.418C825.547 188.871 823.209 194.772 823.209 202.12V245.54C823.209 252.888 825.547 258.9 830.223 263.576C835.122 268.252 841.023 270.59 847.925 270.59H861.619C868.745 270.59 874.534 268.252 878.987 263.576C883.663 258.9 886.001 252.888 886.001 245.54V202.12C886.001 194.772 883.663 188.871 878.987 184.418C874.534 179.742 868.745 177.404 861.619 177.404H847.925ZM1022.13 138.994C1031.93 138.994 1040.62 140.553 1048.19 143.67C1055.98 146.565 1062.55 150.684 1067.89 156.028C1073.46 161.372 1077.69 167.829 1080.58 175.4C1083.48 182.971 1084.93 191.543 1084.93 201.118V246.876C1084.93 256.228 1083.48 264.801 1080.58 272.594C1077.69 280.165 1073.46 286.733 1067.89 292.3C1062.55 297.644 1055.98 301.763 1048.19 304.658C1040.62 307.553 1031.93 309 1022.13 309H1008.77C998.978 309 990.182 307.553 982.389 304.658C974.818 301.763 968.25 297.644 962.683 292.3C957.339 286.733 953.22 280.165 950.325 272.594C947.43 264.801 945.983 256.228 945.983 246.876V201.118V198.446V81.546H985.395V143.336C993.634 140.441 1002.32 138.994 1011.45 138.994H1022.13ZM1008.77 177.404C1001.65 177.404 995.972 179.631 991.741 184.084C987.733 188.537 985.618 194.215 985.395 201.118V245.54C985.395 252.888 987.51 258.9 991.741 263.576C995.972 268.252 1001.65 270.59 1008.77 270.59H1022.13C1029.26 270.59 1035.05 268.252 1039.5 263.576C1043.96 258.9 1046.18 252.888 1046.18 245.54V202.12C1046.18 194.772 1043.96 188.871 1039.5 184.418C1035.05 179.742 1029.26 177.404 1022.13 177.404H1008.77ZM1107.08 192.768C1107.75 185.643 1109.31 178.851 1111.76 172.394C1114.43 165.937 1118.21 160.259 1123.11 155.36C1128.01 150.461 1134.13 146.565 1141.48 143.67C1148.83 140.553 1157.29 138.994 1166.87 138.994H1186.91C1196.93 138.994 1205.61 140.664 1212.96 144.004C1220.53 147.344 1226.76 151.797 1231.66 157.364C1236.56 162.708 1240.24 168.943 1242.68 176.068C1245.13 182.971 1246.36 189.985 1246.36 197.11V309H1151.5C1144.15 309 1137.59 307.664 1131.8 304.992C1126.01 302.097 1121.11 298.423 1117.1 293.97C1113.32 289.294 1110.42 283.839 1108.42 277.604C1106.64 271.369 1105.74 264.689 1105.74 257.564C1105.74 250.661 1106.75 244.204 1108.75 238.192C1110.75 232.18 1113.65 227.059 1117.43 222.828C1121.22 218.375 1125.9 214.923 1131.46 212.474C1137.25 209.802 1143.71 208.466 1150.83 208.466H1207.95V205.126C1207.95 201.118 1207.61 197.444 1206.95 194.104C1206.28 190.541 1205.05 187.535 1203.27 185.086C1201.49 182.637 1198.82 180.744 1195.26 179.408C1191.69 177.849 1186.91 177.07 1180.89 177.07H1172.54C1163.64 177.07 1157.29 178.406 1153.51 181.078C1149.72 183.527 1147.16 187.424 1145.82 192.768H1107.08ZM1141.48 257.564C1141.48 263.353 1142.6 267.695 1144.82 270.59C1147.27 273.262 1149.94 274.598 1152.84 274.598H1207.95V240.53H1152.84C1149.94 240.53 1147.27 241.977 1144.82 244.872C1142.6 247.767 1141.48 251.997 1141.48 257.564ZM1314.95 173.73C1318.07 168.609 1322.19 164.155 1327.31 160.37C1332.66 156.362 1338.45 153.022 1344.68 150.35C1351.14 147.678 1357.93 145.674 1365.05 144.338C1372.18 143.002 1379.3 142.334 1386.43 142.334H1390.77V183.75H1386.43C1378.41 183.75 1370.18 185.42 1361.71 188.76C1353.25 191.877 1345.46 196.108 1338.33 201.452C1331.43 206.573 1325.75 212.363 1321.3 218.82C1317.07 225.277 1314.95 231.735 1314.95 238.192V309H1273.54V137.658H1314.95V173.73Z" fill="#008D96"/>
<rect y="83" width="208" height="228" rx="30" fill="#008D96"/>
<path d="M0 113C0 96.4315 13.4315 83 30 83H178C194.569 83 208 96.4315 208 113V151H0V113Z" fill="#FF9174"/>
<path d="M36 205C36 195.059 44.0589 187 54 187C63.9411 187 72 195.059 72 205V275H36V205Z" fill="#B1EDE9"/>
<path d="M86 205C86 195.059 94.0589 187 104 187C113.941 187 122 195.059 122 205V275H86V205Z" fill="#B1EDE9"/>
<path d="M136 205C136 195.059 144.059 187 154 187C163.941 187 172 195.059 172 205V275H136V205Z" fill="#B1EDE9"/>
</svg>
