<svg width="262" height="68" viewBox="0 0 262 68" fill="none" xmlns="http://www.w3.org/2000/svg">
<path d="M24 8.47214H21.1948C19.4285 8.47214 18 9.02639 16.9091 10.1349C15.8182 11.2434 15.2727 12.6686 15.2727 14.4106V16.1525H24V25.2581H15.2727V54H7.09091V25.2581H0V16.1525H7.09091V14.8065C7.09091 12.5367 7.4026 10.5044 8.02598 8.70968C8.64935 6.86218 9.55852 5.30499 10.7532 4.03813C12 2.77126 13.4805 1.79472 15.1948 1.1085C16.9611 0.369502 18.961 0 21.1948 0H24V8.47214Z" fill="#008D96"/>
<path d="M40.5385 21.6316C41.2563 20.4061 42.205 19.3405 43.3846 18.4347C44.6154 17.4756 45.9486 16.6764 47.3846 16.037C48.8717 15.3977 50.4357 14.9181 52.0769 14.5984C53.7179 14.2788 55.3588 14.1189 57 14.1189H58V24.0292H57C55.1539 24.0292 53.2563 24.4289 51.3077 25.2281C49.3588 25.9739 47.564 26.9864 45.9231 28.2651C44.3333 29.4905 43.0256 30.876 42 32.4211C41.0256 33.9661 40.5385 35.5114 40.5385 37.0565V54H31V13H40.5385V21.6316Z" fill="#008D96"/>
<path d="M74 54H64V13.6388H74V54ZM74 9.27754H64V0H74V9.27754Z" fill="#008D96"/>
<path d="M113 14V54.3812C113 56.5454 112.686 58.4457 112.057 60.0821C111.429 61.7712 110.564 63.1964 109.464 64.3578C108.364 65.5718 107.029 66.4693 105.457 67.0499C103.886 67.6833 102.157 68 100.271 68H82.2786V59.2111H98.7786C100.402 59.2111 101.738 58.7098 102.786 57.7067C103.886 56.7037 104.436 55.3051 104.436 53.5103V53.0352H92.7286C91 53.0352 89.35 52.7448 87.7786 52.1642C86.2594 51.5308 84.9236 50.607 83.7714 49.393C82.619 48.179 81.7022 46.7009 81.0214 44.9589C80.3404 43.1641 80 41.1055 80 38.783V28.2522C80 25.9297 80.3404 23.8974 81.0214 22.1554C81.7022 20.3607 82.619 18.8563 83.7714 17.6422C84.9236 16.4282 86.2594 15.5308 87.7786 14.9501C89.35 14.3167 91 14 92.7286 14H113ZM104.357 22.7889H94.6929C93.9071 22.7889 93.1737 22.9736 92.4929 23.3431C91.8118 23.6598 91.2094 24.1349 90.6857 24.7683C90.1618 25.3489 89.7429 26.0089 89.4286 26.7478C89.1143 27.4867 88.9571 28.3051 88.9571 29.2023V37.7537C88.9571 38.6509 89.1143 39.4956 89.4286 40.2874C89.7429 41.0792 90.1618 41.7655 90.6857 42.346C91.2094 42.9266 91.8118 43.4017 92.4929 43.7713C93.1737 44.088 93.9071 44.2463 94.6929 44.2463H104.357V22.7889Z" fill="#008D96"/>
<path d="M136.087 14C138.414 14 140.476 14.3667 142.274 15.1002C144.125 15.7813 145.685 16.7505 146.954 18.0079C148.277 19.2652 149.281 20.7845 149.969 22.5658C150.656 24.3472 151 26.364 151 28.6169V39.3831C151 41.5835 150.656 43.6006 149.969 45.4342C149.281 47.2155 148.277 48.7609 146.954 50.0707C145.685 51.3281 144.125 52.2972 142.274 52.9784C140.476 53.6595 138.414 54 136.087 54H132.834C130.56 54 128.498 53.6595 126.647 52.9784C124.796 52.2972 123.209 51.3281 121.887 50.0707C120.618 48.7609 119.64 47.2155 118.952 45.4342C118.317 43.6006 118 41.5835 118 39.3831V28.6169C118 26.364 118.317 24.3472 118.952 22.5658C119.64 20.7845 120.618 19.2652 121.887 18.0079C123.209 16.7505 124.796 15.7813 126.647 15.1002C128.498 14.3667 130.56 14 132.834 14H136.087ZM132.834 23.0373C131.195 23.0373 129.793 23.5874 128.63 24.6876C127.519 25.7354 126.964 27.1238 126.964 28.8527V39.0688C126.964 40.7976 127.519 42.2122 128.63 43.3124C129.793 44.4126 131.195 44.9627 132.834 44.9627H136.087C137.779 44.9627 139.154 44.4126 140.212 43.3124C141.322 42.2122 141.877 40.7976 141.877 39.0688V28.8527C141.877 27.1238 141.322 25.7354 140.212 24.6876C139.154 23.5874 137.779 23.0373 136.087 23.0373H132.834Z" fill="#008D96"/>
<path d="M174.087 13.6388C176.412 13.6388 178.476 14.0088 180.274 14.7489C182.124 15.4361 183.685 16.4141 184.953 17.6828C186.276 18.9515 187.28 20.4846 187.969 22.2819C188.656 24.0794 189 26.1145 189 28.3877V39.2511C189 41.4714 188.656 43.5067 187.969 45.3568C187.28 47.1543 186.276 48.7136 184.953 50.0352C183.685 51.304 182.124 52.2819 180.274 52.9692C178.476 53.6565 176.412 54 174.087 54H170.914C168.586 54 166.497 53.6565 164.646 52.9692C162.848 52.2819 161.288 51.304 159.966 50.0352C158.697 48.7136 157.719 47.1543 157.031 45.3568C156.344 43.5067 156 41.4714 156 39.2511V28.3877V27.7533V0H165.36V14.6696C167.317 13.9824 169.38 13.6388 171.548 13.6388H174.087ZM170.914 22.7577C169.221 22.7577 167.872 23.2864 166.868 24.3436C165.916 25.4008 165.413 26.7488 165.36 28.3877V38.9339C165.36 40.6784 165.863 42.1057 166.868 43.2159C167.872 44.326 169.221 44.8811 170.914 44.8811H174.087C175.778 44.8811 177.153 44.326 178.21 43.2159C179.27 42.1057 179.797 40.6784 179.797 38.9339V28.6256C179.797 26.8811 179.27 25.4801 178.21 24.4229C177.153 23.3128 175.778 22.7577 174.087 22.7577H170.914Z" fill="#008D96"/>
<path d="M194.324 26.6523C194.486 24.9758 194.863 23.3779 195.456 21.8585C196.101 20.3392 197.015 19.0033 198.2 17.8507C199.385 16.6981 200.864 15.7813 202.641 15.1002C204.419 14.3667 206.464 14 208.78 14H213.626C216.049 14 218.147 14.3929 219.924 15.1788C221.755 15.9646 223.261 17.0124 224.446 18.3222C225.631 19.5796 226.52 21.0465 227.11 22.723C227.703 24.3472 228 25.9975 228 27.6739V54H205.064C203.287 54 201.701 53.6857 200.301 53.057C198.901 52.3758 197.716 51.5114 196.747 50.4637C195.833 49.3635 195.132 48.08 194.648 46.613C194.218 45.146 194 43.5742 194 41.8978C194 40.2737 194.244 38.7544 194.728 37.3399C195.211 35.9253 195.913 34.7204 196.826 33.725C197.743 32.6772 198.874 31.865 200.219 31.2888C201.619 30.6601 203.181 30.3458 204.902 30.3458H218.713V29.5599C218.713 28.6169 218.631 27.7525 218.471 26.9666C218.309 26.1283 218.012 25.421 217.581 24.8448C217.151 24.2686 216.505 23.8232 215.645 23.5088C214.782 23.1421 213.626 22.9587 212.17 22.9587H210.151C207.999 22.9587 206.464 23.2731 205.55 23.9018C204.634 24.478 204.015 25.3949 203.691 26.6523H194.324ZM202.641 41.8978C202.641 43.2599 202.912 44.2815 203.449 44.9627C204.041 45.5914 204.687 45.9057 205.388 45.9057H218.713V37.89H205.388C204.687 37.89 204.041 38.2304 203.449 38.9116C202.912 39.5927 202.641 40.588 202.641 41.8978Z" fill="#008D96"/>
<path d="M243.891 21.6316C244.636 20.4061 245.62 19.3405 246.843 18.4347C248.121 17.4756 249.504 16.6764 250.992 16.037C252.535 15.3977 254.156 14.9181 255.857 14.5984C257.56 14.2788 259.26 14.1189 260.963 14.1189H262V24.0292H260.963C259.048 24.0292 257.082 24.4289 255.059 25.2281C253.038 25.9739 251.178 26.9864 249.475 28.2651C247.827 29.4905 246.47 30.876 245.407 32.4211C244.397 33.9661 243.891 35.5114 243.891 37.0565V54H234V13H243.891V21.6316Z" fill="#008D96"/>
</svg>
