<svg width="70" height="70" viewBox="0 0 70 70" fill="none" xmlns="http://www.w3.org/2000/svg">
<g clip-path="url(#clip0)">
<path d="M6.29381 12.4432C7.42635 12.4432 8.34445 11.5251 8.34445 10.3925C8.34445 9.25999 7.42635 8.34189 6.29381 8.34189C5.16127 8.34189 4.24316 9.25999 4.24316 10.3925C4.24316 11.5251 5.16127 12.4432 6.29381 12.4432Z" fill="#E47171"/>
<path d="M59.6102 8.34189C60.7428 8.34189 61.6609 7.42378 61.6609 6.29124C61.6609 5.1587 60.7428 4.2406 59.6102 4.2406C58.4777 4.2406 57.5596 5.1587 57.5596 6.29124C57.5596 7.42378 58.4777 8.34189 59.6102 8.34189Z" fill="#E47171"/>
<path d="M63.848 41.1518H50.7433C50.9356 36.9785 50.0704 32.8445 48.2335 29.111L58.2601 24.0978C59.7303 23.3626 60.8261 22.0993 61.3456 20.5405C61.8653 18.9816 61.7466 17.3135 61.0112 15.8428C59.4933 12.8107 55.7911 11.5765 52.7572 13.092L45.2471 16.847C45.2508 16.7463 45.2555 16.6455 45.2555 16.5442C45.2555 12.0213 41.5758 8.34161 37.0529 8.34161C32.5299 8.34161 28.8503 12.0213 28.8503 16.5442C28.8503 17.0112 28.8908 17.471 28.9662 17.9214L24.1942 16.7284C22.0658 16.1928 19.9211 16.8357 18.4288 18.2685L15.4132 16.7608C15.1284 16.6183 14.8145 16.5443 14.4961 16.5443H6.15704C2.76491 16.5443 0.00510182 19.3041 0.00510182 22.6963C0.00510182 26.0884 2.76477 28.8482 6.15704 28.8482C7.2877 28.8482 8.20768 29.7682 8.20768 30.8988C8.20768 32.0295 7.2877 32.9495 6.15704 32.9495C0.984965 32.9495 -1.8525 38.9502 1.35752 42.9501C5.03786 47.5356 4.10653 50.0366 4.10653 51.4052C4.10653 52.5376 5.02473 53.4558 6.15717 53.4558C7.28961 53.4558 8.20782 52.5376 8.20782 51.4052C8.20782 50.2571 9.32659 46.327 4.55606 40.383C3.51399 39.0845 4.40157 37.0508 6.15717 37.0508C9.5493 37.0508 12.3091 34.2911 12.3091 30.8988C12.3091 27.5067 9.54944 24.7469 6.15717 24.7469C5.02651 24.7469 4.10653 23.8269 4.10653 22.6963C4.10653 21.5656 5.02651 20.6456 6.15717 20.6456H14.0123L16.5954 21.9371C16.2157 24.9791 18.1611 27.904 21.2065 28.6646L35.784 32.308C37.7775 34.847 38.699 37.9764 38.4109 41.1517H32.764L22.0109 33.9829C19.1821 32.0947 15.3686 32.853 13.479 35.6889C11.5941 38.5178 12.3565 42.3344 15.1854 44.2195L27.4891 52.4221C28.503 53.098 29.6831 53.4552 30.9015 53.4552C32.3938 53.4552 62.2142 53.4552 63.8482 53.4552C67.2404 53.4552 70.0002 50.6954 70.0002 47.3033C70 43.9113 67.2401 41.1518 63.848 41.1518ZM54.5907 16.7608C55.6022 16.2552 56.8374 16.6668 57.3434 17.6776C57.8492 18.6892 57.4376 19.9237 56.4261 20.4295L46.1177 25.5836C45.3265 24.4819 44.4391 23.4333 43.4562 22.4506C43.4288 22.423 43.3991 22.3978 43.3711 22.3707L54.5907 16.7608ZM37.0531 12.443C39.3146 12.443 41.1544 14.2829 41.1544 16.5443C41.1544 17.6893 40.6796 18.7723 39.8451 19.5483L38.3881 20.2769L33.8881 19.152C33.2819 18.42 32.9519 17.5109 32.9519 16.5443C32.9519 14.2829 34.7917 12.443 37.0531 12.443ZM45.583 46.6532L45.15 47.9522C44.8711 48.7908 44.0895 49.3542 43.2048 49.3542C42.039 49.3542 32.5855 49.3542 30.9012 49.3542C30.495 49.3542 30.1017 49.2351 29.7639 49.0097L17.4597 40.8068C16.5194 40.1803 16.2645 38.9045 16.8916 37.9632C17.5203 37.0202 18.7864 36.7619 19.735 37.3949L31.0054 44.9085C31.3423 45.1332 31.7381 45.2529 32.1428 45.2529H40.1631C41.1253 45.2529 41.9582 44.5837 42.1655 43.6442C43.3116 38.4502 41.97 33.1634 38.485 29.1395C38.2088 28.8207 37.8412 28.5949 37.4321 28.4926L22.2003 24.6857C21.1041 24.4118 20.4351 23.2956 20.7087 22.1993C20.9827 21.1065 22.0958 20.4293 23.1967 20.7063L39.6017 24.8076C39.9622 24.8977 40.2904 25.0835 40.5534 25.3476C46.1661 30.9605 48.0933 39.1242 45.583 46.6532ZM63.848 49.3544H49.0036C49.0162 49.3188 49.0294 49.2837 49.0413 49.2479L49.4738 47.9504C49.7715 47.0575 50.0163 46.1572 50.2105 45.2531H63.8481C64.9788 45.2531 65.8988 46.1731 65.8988 47.3037C65.8986 48.4344 64.9786 49.3544 63.848 49.3544Z" fill="#E47171"/>
<path d="M67.949 65.8961H2.05553C0.923086 65.8961 0.00488281 66.8143 0.00488281 67.9468C0.00488281 69.0792 0.923086 69.9974 2.05553 69.9974H67.949C69.0815 69.9974 69.9997 69.0792 69.9997 67.9468C69.9997 66.8143 69.0815 65.8961 67.949 65.8961Z" fill="#E47171"/>
<path d="M22.6985 4.10388H20.6479V2.05324C20.6479 0.920797 19.7297 0.00259399 18.5972 0.00259399C17.4648 0.00259399 16.5466 0.920797 16.5466 2.05324V4.10388H14.496C13.3635 4.10388 12.4453 5.02195 12.4453 6.15453C12.4453 7.28711 13.3635 8.20517 14.496 8.20517H16.5466V10.2558C16.5466 11.3883 17.4648 12.3065 18.5972 12.3065C19.7297 12.3065 20.6479 11.3883 20.6479 10.2558V8.20504H22.6985C23.831 8.20504 24.7492 7.28683 24.7492 6.15439C24.7492 5.02195 23.8311 4.10388 22.6985 4.10388Z" fill="#E47171"/>
<path d="M67.9495 28.8481H65.8989V26.7974C65.8989 25.665 64.9808 24.7468 63.8482 24.7468C62.7156 24.7468 61.7976 25.665 61.7976 26.7974V28.8481H59.7469C58.6145 28.8481 57.6963 29.7663 57.6963 30.8987C57.6963 32.0311 58.6145 32.9493 59.7469 32.9493H61.7976V35C61.7976 36.1324 62.7158 37.0506 63.8482 37.0506C64.9807 37.0506 65.8989 36.1324 65.8989 35V32.9493H67.9495C69.082 32.9493 70.0002 32.0311 70.0002 30.8987C70.0002 29.7663 69.082 28.8481 67.9495 28.8481Z" fill="#E47171"/>
</g>
<defs>
<clipPath id="clip0">
<rect width="70" height="70" fill="white"/>
</clipPath>
</defs>
</svg>
