<svg width="70" height="70" viewBox="0 0 70 70" fill="none" xmlns="http://www.w3.org/2000/svg">
<g clip-path="url(#clip0)">
<path d="M59.063 20.4167H56.8755V18.4625L56.3213 16.0417H59.063C60.0838 16.0417 60.9588 16.7708 61.1921 17.7333C61.2213 17.8792 61.2505 18.0542 61.2505 18.2292C61.2505 19.425 60.2588 20.4167 59.063 20.4167Z" fill="#E47171"/>
<path d="M59.0625 32.0833C60.2583 32.0833 61.25 33.075 61.25 34.2708C61.25 35.4667 60.2583 36.4583 59.0625 36.4583H56.875V32.0833H59.0625Z" fill="#E47171"/>
<path d="M59.0625 49.5833C60.2583 49.5833 61.25 50.575 61.25 51.7708C61.25 52.9667 60.2583 53.9583 59.0625 53.9583H56.875V49.5833H59.0625Z" fill="#E47171"/>
<path d="M56.875 20.4167H59.0625C60.2583 20.4167 61.25 19.425 61.25 18.2292V34.2708C61.25 33.075 60.2583 32.0833 59.0625 32.0833H56.875V20.4167Z" fill="#E47171"/>
<path d="M56.875 36.4583H59.0625C60.2583 36.4583 61.25 35.4667 61.25 34.2708V51.7708C61.25 50.575 60.2583 49.5833 59.0625 49.5833H56.875V36.4583Z" fill="#E47171"/>
<path d="M13.125 49.5833H56.875V53.9583H13.125V49.5833Z" fill="#E47171"/>
<path d="M13.125 32.0833H56.875V36.4583H13.125V32.0833Z" fill="#E47171"/>
<path d="M50.3122 23.3333C51.508 23.3333 52.4997 24.325 52.4997 25.5208C52.4997 26.7167 51.508 27.7083 50.3122 27.7083H43.0205C41.8247 27.7083 40.833 26.7167 40.833 25.5208C40.833 24.325 41.8247 23.3333 43.0205 23.3333H50.3122Z" fill="#E47171"/>
<path d="M50.3122 40.8333C51.508 40.8333 52.4997 41.825 52.4997 43.0208C52.4997 44.2167 51.508 45.2083 50.3122 45.2083H43.0205C41.8247 45.2083 40.833 44.2167 40.833 43.0208C40.833 41.825 41.8247 40.8333 43.0205 40.8333H50.3122Z" fill="#E47171"/>
<path d="M50.3122 56.875C51.508 56.875 52.4997 57.8667 52.4997 59.0625C52.4997 60.2583 51.508 61.25 50.3122 61.25H43.0205C41.8247 61.25 40.833 60.2583 40.833 59.0625C40.833 57.8667 41.8247 56.875 43.0205 56.875H50.3122Z" fill="#E47171"/>
<path d="M28.5254 23.3333C29.7212 23.3333 30.7129 24.325 30.7129 25.5208V26.9792C30.7129 28.175 29.7212 29.1667 28.5254 29.1667C27.3004 29.1667 26.3379 28.175 26.3379 26.9792V25.5208C26.3379 24.325 27.3004 23.3333 28.5254 23.3333Z" fill="#E47171"/>
<path d="M30.7129 43.0208V44.4792C30.7129 45.675 29.7212 46.6667 28.5254 46.6667C27.3004 46.6667 26.3379 45.675 26.3379 44.4792V43.0208C26.3379 41.825 27.3004 40.8333 28.5254 40.8333C29.7212 40.8333 30.7129 41.825 30.7129 43.0208Z" fill="#E47171"/>
<path d="M30.7129 59.0625V60.5208C30.7129 61.7167 29.7212 62.7083 28.5254 62.7083C27.3004 62.7083 26.3379 61.7167 26.3379 60.5208V59.0625C26.3379 57.8667 27.3004 56.875 28.5254 56.875C29.7212 56.875 30.7129 57.8667 30.7129 59.0625Z" fill="#E47171"/>
<path d="M21.9629 26.9792C21.9629 28.175 20.9712 29.1667 19.7754 29.1667C18.5504 29.1667 17.5879 28.175 17.5879 26.9792V25.5208C17.5879 24.325 18.5504 23.3333 19.7754 23.3333C20.9712 23.3333 21.9629 24.325 21.9629 25.5208V26.9792Z" fill="#E47171"/>
<path d="M21.9629 44.4792C21.9629 45.675 20.9712 46.6667 19.7754 46.6667C18.5504 46.6667 17.5879 45.675 17.5879 44.4792V43.0208C17.5879 41.825 18.5504 40.8333 19.7754 40.8333C20.9712 40.8333 21.9629 41.825 21.9629 43.0208V44.4792Z" fill="#E47171"/>
<path d="M21.9629 60.5208C21.9629 61.7167 20.9712 62.7083 19.7754 62.7083C18.5504 62.7083 17.5879 61.7167 17.5879 60.5208V59.0625C17.5879 57.8667 18.5504 56.875 19.7754 56.875C20.9712 56.875 21.9629 57.8667 21.9629 59.0625V60.5208Z" fill="#E47171"/>
<path d="M16.1878 4.92917L13.6794 16.0417H10.9378C9.91693 16.0417 9.04193 16.7708 8.80859 17.7333L11.9294 3.96667C12.4544 1.63333 14.5253 0 16.9169 0H53.0836C55.4753 0 57.5461 1.63333 58.0711 3.96667L61.1919 17.7333C60.9586 16.7708 60.0836 16.0417 59.0628 16.0417H56.3211L53.7836 4.92917C53.7253 4.60833 53.4336 4.375 53.0836 4.375H16.9169C16.5669 4.375 16.2753 4.60833 16.1878 4.92917Z" fill="#E47171"/>
<path d="M13.125 18.4625L13.6792 16.0417H56.3208L56.875 18.4625V20.4167H13.125V18.4625Z" fill="#E47171"/>
<path d="M13.8542 65.625H56.1458C56.5542 65.625 56.875 65.3042 56.875 64.8958V53.9583H59.0625C60.2583 53.9583 61.25 52.9667 61.25 51.7708V64.8958C61.25 67.725 58.975 70 56.1458 70H13.8542C11.0542 70 8.75 67.725 8.75 64.8958V51.7708C8.75 52.9667 9.74167 53.9583 10.9375 53.9583H13.125V64.8958C13.125 65.3042 13.4458 65.625 13.8542 65.625Z" fill="#E47171"/>
<path d="M13.125 49.5833V53.9583H10.9375C9.74167 53.9583 8.75 52.9667 8.75 51.7708C8.75 50.575 9.74167 49.5833 10.9375 49.5833H13.125Z" fill="#E47171"/>
<path d="M13.125 36.4583V49.5833H10.9375C9.74167 49.5833 8.75 50.575 8.75 51.7708V34.2708C8.75 35.4667 9.74167 36.4583 10.9375 36.4583H13.125Z" fill="#E47171"/>
<path d="M13.125 32.0833V36.4583H10.9375C9.74167 36.4583 8.75 35.4667 8.75 34.2708C8.75 33.075 9.74167 32.0833 10.9375 32.0833H13.125Z" fill="#E47171"/>
<path d="M13.125 20.4167V32.0833H10.9375C9.74167 32.0833 8.75 33.075 8.75 34.2708V18.2292C8.75 19.425 9.74167 20.4167 10.9375 20.4167H13.125Z" fill="#E47171"/>
<path d="M13.125 18.4625V20.4167H10.9375C9.74167 20.4167 8.75 19.425 8.75 18.2292C8.75 18.0542 8.77917 17.8792 8.80833 17.7333C9.04167 16.7708 9.91667 16.0417 10.9375 16.0417H13.6792L13.125 18.4625Z" fill="#E47171"/>
</g>
<defs>
<clipPath id="clip0">
<rect width="70" height="70" fill="white"/>
</clipPath>
</defs>
</svg>
