<?xml version="1.0" encoding="iso-8859-1"?>
<!-- Generator: Adobe Illustrator 19.0.0, SVG Export Plug-In . SVG Version: 6.00 Build 0)  -->
<svg version="1.1" id="Capa_1" xmlns="http://www.w3.org/2000/svg" xmlns:xlink="http://www.w3.org/1999/xlink" x="0px" y="0px"
	 viewBox="0 0 512 512" style="enable-background:new 0 0 512 512;" xml:space="preserve">
<g transform="translate(1 1)">
	<g>
		<g>
			<path d="M425.667-1H84.333c-14.114,0-25.6,11.486-25.6,25.6v443.733c0,4.719,3.823,8.533,8.533,8.533v17.067
				c0,9.412,7.654,17.067,17.067,17.067h34.133c9.412,0,17.067-7.654,17.067-17.067v-17.067h238.933v17.067
				c0,9.412,7.654,17.067,17.067,17.067h34.133c9.412,0,17.067-7.654,17.067-17.067v-17.067c4.719,0,8.533-3.814,8.533-8.533V24.6
				C451.267,10.486,439.781-1,425.667-1z M434.2,459.8H383H127H75.8v-17.067h358.4V459.8z M75.8,425.667V50.2h201.267L303.7,76.833
				c4.83,4.838,11.264,7.501,18.099,7.501H434.2v341.333H75.8z M301.2,50.2h133v17.067H321.799c-2.244,0-4.437-0.913-6.033-2.5
				L301.2,50.2z M84.333,16.067h341.333c4.71,0,8.533,3.831,8.533,8.533v8.533H280.646c-0.031,0-0.061,0-0.092,0H75.8V24.6
				C75.8,19.898,79.631,16.067,84.333,16.067z M118.467,493.933H84.333v-17.067h34.133V493.933z M425.667,493.933h-34.133v-17.067
				h34.133V493.933z"/>
			<path d="M101.4,67.267c-4.71,0-8.533,3.823-8.533,8.533v8.533c0,4.71,3.823,8.533,8.533,8.533c4.71,0,8.533-3.823,8.533-8.533
				V75.8C109.933,71.09,106.11,67.267,101.4,67.267z"/>
			<path d="M135.533,67.267c-4.71,0-8.533,3.823-8.533,8.533v8.533c0,4.71,3.823,8.533,8.533,8.533s8.533-3.823,8.533-8.533V75.8
				C144.067,71.09,140.244,67.267,135.533,67.267z"/>
		</g>
	</g>
</g>
<g>
</g>
<g>
</g>
<g>
</g>
<g>
</g>
<g>
</g>
<g>
</g>
<g>
</g>
<g>
</g>
<g>
</g>
<g>
</g>
<g>
</g>
<g>
</g>
<g>
</g>
<g>
</g>
<g>
</g>
</svg>
